<svg width="14" height="13" viewBox="0 0 14 13" fill="none" xmlns="http://www.w3.org/2000/svg">
<path d="M13.4953 6.30652C13.4953 6.7363 13.1437 7.07296 12.7453 7.07296H11.9953L12.0117 10.898C12.0117 10.9624 12.007 11.0269 12 11.0914V11.4758C12 12.0035 11.5805 12.4309 11.0625 12.4309H10.6875C10.6617 12.4309 10.6359 12.4309 10.6102 12.4285C10.5773 12.4309 10.5445 12.4309 10.5117 12.4309H9.75H9.1875C8.66953 12.4309 8.25 12.0035 8.25 11.4758V10.9028V9.37466C8.25 8.95204 7.91484 8.61061 7.5 8.61061H6C5.58516 8.61061 5.25 8.95204 5.25 9.37466V10.9028V11.4758C5.25 12.0035 4.83047 12.4309 4.3125 12.4309H3.75H3.00234C2.96719 12.4309 2.93203 12.4285 2.89687 12.4261C2.86875 12.4285 2.84063 12.4309 2.8125 12.4309H2.4375C1.91953 12.4309 1.5 12.0035 1.5 11.4758V8.80162C1.5 8.78013 1.5 8.75625 1.50234 8.73477V7.07296H0.75C0.328125 7.07296 0 6.73868 0 6.30652C0 6.09163 0.0703125 5.90062 0.234375 5.73348L6.24375 0.397067C6.40781 0.229931 6.59531 0.206055 6.75937 0.206055C6.92344 0.206055 7.11094 0.253808 7.25156 0.373191L13.2375 5.73348C13.425 5.90062 13.5187 6.09163 13.4953 6.30652Z" fill="#626465"/>
</svg>
